<?xml version="1.0" encoding="utf-8"?>
<!-- Generator: Adobe Illustrator 18.1.1, SVG Export Plug-In . SVG Version: 6.00 Build 0)  -->
<svg version="1.1" id="Layer_1" xmlns="http://www.w3.org/2000/svg" xmlns:xlink="http://www.w3.org/1999/xlink" x="0px" y="0px"
	 viewBox="0 0 100 50" enable-background="new 0 0 100 50" xml:space="preserve">
<path fill="#4E5A4F" d="M2.9,14.2c-5.9,9.9-2.7,22.9,7.3,28.9c10,5.9,23,2.6,28.9-7.3s2.7-22.9-7.3-28.9C21.8,0.9,8.8,4.3,2.9,14.2z
	 M7.8,35.8c-4.4-5.4-5.1-13.3-1.4-19.6S17.2,7,24.1,7.9c1.1,0.3,1.6,1.5,1.1,2.3L20,19.1c-1.3,0.3-3.2,1.7-3.8,2.8
	c-0.7,1.3-1.1,3.7-0.8,4.9l-5.3,8.9C9.6,36.5,8.3,36.6,7.8,35.8z M33.4,36.5c-4.6,5.3-11.1,7.1-17.7,4.9c-1-0.4-1.5-1.6-1-2.5
	c1.5-3.3,5.1-8.4,7-8.7C23.5,29.6,33.4,36.5,33.4,36.5z M23.5,26.4c-0.8,1.3-2.5,1.8-3.9,1c-1.3-0.8-1.8-2.5-1-3.9
	c0.8-1.4,2.5-1.8,3.9-1C23.8,23.4,24.3,25,23.5,26.4z M36.8,30.3c0,0-10.7-5.1-11.2-7.3c-0.4-1.8,2.3-7.6,4.4-10.2
	c0.7-0.9,1.9-1,2.7-0.3C37.9,17.2,39.3,23.7,36.8,30.3z"/>
<path fill="#4E5B50" d="M97.6,21H60.3c-1.3,0-2.4-1.1-2.4-2.4v-0.3c0-1.3,1.1-2.4,2.4-2.4h37.3c1.3,0,2.4,1.1,2.4,2.4v0.3
	C100,19.9,98.9,21,97.6,21z"/>
<path fill="#4E5B50" d="M89.7,32.8H52.4c-1.3,0-2.4-1.1-2.4-2.4v-0.3c0-1.3,1.1-2.4,2.4-2.4h37.3c1.3,0,2.4,1.1,2.4,2.4v0.3
	C92.1,31.7,91,32.8,89.7,32.8z"/>
<path fill="#4E5B50" d="M81.8,44.2H44.5c-1.3,0-2.4-1.1-2.4-2.4v-0.3c0-1.3,1.1-2.4,2.4-2.4h37.3c1.3,0,2.4,1.1,2.4,2.4v0.3
	C84.2,43.1,83.1,44.2,81.8,44.2z"/>
</svg>
